<?xml version="1.0" standalone="no"?>
<!DOCTYPE svg PUBLIC "-//W3C//DTD SVG 20010904//EN"
 "http://www.w3.org/TR/2001/REC-SVG-20010904/DTD/svg10.dtd">
<svg version="1.0" xmlns="http://www.w3.org/2000/svg"
 width="1401.000000pt" height="1600.000000pt" viewBox="0 0 1401.000000 1600.000000"
 preserveAspectRatio="xMidYMid meet">
<metadata>
Created by potrace 1.16, written by Peter Selinger 2001-2019
</metadata>
<g transform="translate(0.000000,1600.000000) scale(0.100000,-0.100000)"
fill="#000000" stroke="none">
<path d="M0 8000 l0 -8000 2505 0 2505 0 0 2843 c0 1771 4 2887 10 2962 13
158 34 266 77 400 226 702 864 1205 1658 1306 116 14 384 14 500 0 473 -61
892 -260 1209 -577 312 -313 490 -692 526 -1121 6 -73 10 -1196 10 -2965 l0
-2848 2505 0 2505 0 0 8000 0 8000 -7005 0 -7005 0 0 -8000z"/>
</g>
</svg>
