<?xml version="1.0" standalone="no"?>
<!DOCTYPE svg PUBLIC "-//W3C//DTD SVG 20010904//EN"
 "http://www.w3.org/TR/2001/REC-SVG-20010904/DTD/svg10.dtd">
<svg version="1.0" xmlns="http://www.w3.org/2000/svg"
 width="325.000000pt" height="257.000000pt" viewBox="0 0 325.000000 257.000000"
 preserveAspectRatio="xMidYMid meet">
<metadata>
Created by potrace 1.16, written by Peter Selinger 2001-2019
</metadata>
<g transform="translate(0.000000,257.000000) scale(0.100000,-0.100000)"
fill="#000000" stroke="none">
<path d="M1547 2453 c-40 -65 -91 -146 -113 -181 -21 -35 -61 -98 -89 -140
-27 -43 -70 -111 -95 -151 -25 -40 -68 -109 -97 -154 -110 -173 -161 -255
-213 -337 -29 -47 -77 -121 -105 -165 -28 -44 -215 -339 -414 -655 -200 -316
-376 -594 -392 -617 -16 -23 -29 -44 -29 -47 0 -3 731 -6 1625 -6 894 0 1625
2 1625 4 0 2 -48 80 -106 173 -134 211 -137 217 -217 341 -37 56 -67 104 -67
107 0 3 -9 18 -19 33 -24 35 -194 300 -275 430 -32 51 -70 111 -132 209 -21
34 -64 101 -94 149 -30 49 -73 116 -95 150 -55 87 -116 183 -384 607 -128 202
-235 367 -236 367 -2 0 -37 -53 -78 -117z"/>
</g>
</svg>
