{
    "asset" : {
        "generator" : "Khronos glTF Blender I/O v1.3.48",
        "version" : "2.0"
    },
    "scene" : 0,
    "scenes" : [
        {
            "name" : "Scene",
            "nodes" : [
                0,
                4
            ]
        }
    ],
    "nodes" : [
        {
            "name" : "Empty",
            "rotation" : [
                -0.055170074105262756,
                0.051089052110910416,
                0.12413856387138367,
                0.9894119501113892
            ],
            "translation" : [
                0.33442234992980957,
                -0.6176629662513733,
                0.7113308310508728
            ]
        },
        {
            "mesh" : 0,
            "name" : "Cube",
            "scale" : [
                0.3124408721923828,
                0.1473502218723297,
                0.4461924731731415
            ],
            "translation" : [
                0,
                -0.4580385982990265,
                0
            ]
        },
        {
            "mesh" : 1,
            "name" : "Cube.001",
            "rotation" : [
                0,
                0.8660257458686829,
                0,
                0.4999995231628418
            ],
            "scale" : [
                0.3124409019947052,
                0.1473502218723297,
                0.44619253277778625
            ],
            "translation" : [
                0,
                -0.4580385982990265,
                0
            ]
        },
        {
            "mesh" : 2,
            "name" : "Cube.002",
            "rotation" : [
                0,
                -0.8660257458686829,
                0,
                0.4999995529651642
            ],
            "scale" : [
                0.3124409019947052,
                0.1473502218723297,
                0.4461924731731415
            ],
            "translation" : [
                0,
                -0.4580385982990265,
                0
            ]
        },
        {
            "children" : [
                1,
                2,
                3
            ],
            "mesh" : 3,
            "name" : "Cone",
            "rotation" : [
                0.1276913285255432,
                -0.12769140303134918,
                0.6954820156097412,
                0.6954815983772278
            ],
            "scale" : [
                0.24013930559158325,
                0.24013930559158325,
                0.24013930559158325
            ]
        }
    ],
    "animations" : [
        {
            "channels" : [
                {
                    "sampler" : 0,
                    "target" : {
                        "node" : 4,
                        "path" : "rotation"
                    }
                },
                {
                    "sampler" : 1,
                    "target" : {
                        "node" : 4,
                        "path" : "translation"
                    }
                },
                {
                    "sampler" : 2,
                    "target" : {
                        "node" : 4,
                        "path" : "scale"
                    }
                },
                {
                    "sampler" : 3,
                    "target" : {
                        "node" : 3,
                        "path" : "translation"
                    }
                },
                {
                    "sampler" : 4,
                    "target" : {
                        "node" : 2,
                        "path" : "translation"
                    }
                },
                {
                    "sampler" : 5,
                    "target" : {
                        "node" : 1,
                        "path" : "translation"
                    }
                }
            ],
            "name" : "Animation",
            "samplers" : [
                {
                    "input" : 10,
                    "interpolation" : "LINEAR",
                    "output" : 11
                },
                {
                    "input" : 12,
                    "interpolation" : "LINEAR",
                    "output" : 13
                },
                {
                    "input" : 14,
                    "interpolation" : "STEP",
                    "output" : 15
                },
                {
                    "input" : 16,
                    "interpolation" : "STEP",
                    "output" : 17
                },
                {
                    "input" : 16,
                    "interpolation" : "STEP",
                    "output" : 18
                },
                {
                    "input" : 16,
                    "interpolation" : "STEP",
                    "output" : 19
                }
            ]
        }
    ],
    "materials" : [
        {
            "doubleSided" : true,
            "name" : "Material.003",
            "pbrMetallicRoughness" : {}
        },
        {
            "doubleSided" : true,
            "name" : "Material.004",
            "pbrMetallicRoughness" : {}
        }
    ],
    "meshes" : [
        {
            "name" : "Cube.001",
            "primitives" : [
                {
                    "attributes" : {
                        "POSITION" : 0
                    },
                    "indices" : 1,
                    "material" : 0
                },
                {
                    "attributes" : {
                        "POSITION" : 2
                    },
                    "indices" : 3,
                    "material" : 1
                }
            ]
        },
        {
            "name" : "Cube.002",
            "primitives" : [
                {
                    "attributes" : {
                        "POSITION" : 4
                    },
                    "indices" : 1,
                    "material" : 0
                },
                {
                    "attributes" : {
                        "POSITION" : 5
                    },
                    "indices" : 3,
                    "material" : 1
                }
            ]
        },
        {
            "name" : "Cube.003",
            "primitives" : [
                {
                    "attributes" : {
                        "POSITION" : 6
                    },
                    "indices" : 1,
                    "material" : 0
                },
                {
                    "attributes" : {
                        "POSITION" : 7
                    },
                    "indices" : 3,
                    "material" : 1
                }
            ]
        },
        {
            "name" : "Cone",
            "primitives" : [
                {
                    "attributes" : {
                        "POSITION" : 8
                    },
                    "indices" : 9,
                    "material" : 1
                }
            ]
        }
    ],
    "accessors" : [
        {
            "bufferView" : 0,
            "componentType" : 5126,
            "count" : 217,
            "max" : [
                2.1804041862487793,
                0.9166667461395264,
                -0.13749420642852783
            ],
            "min" : [
                -2.1804041862487793,
                -0.9166667461395264,
                -12.2970552444458
            ],
            "type" : "VEC3"
        },
        {
            "bufferView" : 1,
            "componentType" : 5123,
            "count" : 1248,
            "type" : "SCALAR"
        },
        {
            "bufferView" : 2,
            "componentType" : 5126,
            "count" : 89,
            "max" : [
                2.0423130989074707,
                0.9166667461395264,
                -12.297054290771484
            ],
            "min" : [
                -2.0423130989074707,
                -0.9166667461395264,
                -15.905120849609375
            ],
            "type" : "VEC3"
        },
        {
            "bufferView" : 3,
            "componentType" : 5123,
            "count" : 480,
            "type" : "SCALAR"
        },
        {
            "bufferView" : 4,
            "componentType" : 5126,
            "count" : 217,
            "max" : [
                2.1804041862487793,
                0.9166667461395264,
                -0.13749420642852783
            ],
            "min" : [
                -2.1804041862487793,
                -0.9166667461395264,
                -12.2970552444458
            ],
            "type" : "VEC3"
        },
        {
            "bufferView" : 5,
            "componentType" : 5126,
            "count" : 89,
            "max" : [
                2.0423130989074707,
                0.9166667461395264,
                -12.297054290771484
            ],
            "min" : [
                -2.0423130989074707,
                -0.9166667461395264,
                -15.905120849609375
            ],
            "type" : "VEC3"
        },
        {
            "bufferView" : 6,
            "componentType" : 5126,
            "count" : 217,
            "max" : [
                2.1804041862487793,
                0.9166667461395264,
                -0.13749420642852783
            ],
            "min" : [
                -2.1804041862487793,
                -0.9166667461395264,
                -12.2970552444458
            ],
            "type" : "VEC3"
        },
        {
            "bufferView" : 7,
            "componentType" : 5126,
            "count" : 89,
            "max" : [
                2.0423130989074707,
                0.9166667461395264,
                -12.297054290771484
            ],
            "min" : [
                -2.0423130989074707,
                -0.9166667461395264,
                -15.905120849609375
            ],
            "type" : "VEC3"
        },
        {
            "bufferView" : 8,
            "componentType" : 5126,
            "count" : 33,
            "max" : [
                1,
                1,
                1
            ],
            "min" : [
                -1,
                -1,
                -1
            ],
            "type" : "VEC3"
        },
        {
            "bufferView" : 9,
            "componentType" : 5123,
            "count" : 186,
            "type" : "SCALAR"
        },
        {
            "bufferView" : 10,
            "componentType" : 5126,
            "count" : 17,
            "max" : [
                4.708333333333333
            ],
            "min" : [
                0.041666666666666664
            ],
            "type" : "SCALAR"
        },
        {
            "bufferView" : 11,
            "componentType" : 5126,
            "count" : 17,
            "type" : "VEC4"
        },
        {
            "bufferView" : 12,
            "componentType" : 5126,
            "count" : 4,
            "max" : [
                4.583333333333333
            ],
            "min" : [
                3.7083333333333335
            ],
            "type" : "SCALAR"
        },
        {
            "bufferView" : 13,
            "componentType" : 5126,
            "count" : 4,
            "type" : "VEC3"
        },
        {
            "bufferView" : 14,
            "componentType" : 5126,
            "count" : 1,
            "max" : [
                4.708333333333333
            ],
            "min" : [
                4.708333333333333
            ],
            "type" : "SCALAR"
        },
        {
            "bufferView" : 15,
            "componentType" : 5126,
            "count" : 1,
            "type" : "VEC3"
        },
        {
            "bufferView" : 16,
            "componentType" : 5126,
            "count" : 1,
            "max" : [
                3.7083333333333335
            ],
            "min" : [
                3.7083333333333335
            ],
            "type" : "SCALAR"
        },
        {
            "bufferView" : 17,
            "componentType" : 5126,
            "count" : 1,
            "type" : "VEC3"
        },
        {
            "bufferView" : 18,
            "componentType" : 5126,
            "count" : 1,
            "type" : "VEC3"
        },
        {
            "bufferView" : 19,
            "componentType" : 5126,
            "count" : 1,
            "type" : "VEC3"
        }
    ],
    "bufferViews" : [
        {
            "buffer" : 0,
            "byteLength" : 2604,
            "byteOffset" : 0
        },
        {
            "buffer" : 0,
            "byteLength" : 2496,
            "byteOffset" : 2604
        },
        {
            "buffer" : 0,
            "byteLength" : 1068,
            "byteOffset" : 5100
        },
        {
            "buffer" : 0,
            "byteLength" : 960,
            "byteOffset" : 6168
        },
        {
            "buffer" : 0,
            "byteLength" : 2604,
            "byteOffset" : 7128
        },
        {
            "buffer" : 0,
            "byteLength" : 1068,
            "byteOffset" : 9732
        },
        {
            "buffer" : 0,
            "byteLength" : 2604,
            "byteOffset" : 10800
        },
        {
            "buffer" : 0,
            "byteLength" : 1068,
            "byteOffset" : 13404
        },
        {
            "buffer" : 0,
            "byteLength" : 396,
            "byteOffset" : 14472
        },
        {
            "buffer" : 0,
            "byteLength" : 372,
            "byteOffset" : 14868
        },
        {
            "buffer" : 0,
            "byteLength" : 68,
            "byteOffset" : 15240
        },
        {
            "buffer" : 0,
            "byteLength" : 272,
            "byteOffset" : 15308
        },
        {
            "buffer" : 0,
            "byteLength" : 16,
            "byteOffset" : 15580
        },
        {
            "buffer" : 0,
            "byteLength" : 48,
            "byteOffset" : 15596
        },
        {
            "buffer" : 0,
            "byteLength" : 4,
            "byteOffset" : 15644
        },
        {
            "buffer" : 0,
            "byteLength" : 12,
            "byteOffset" : 15648
        },
        {
            "buffer" : 0,
            "byteLength" : 4,
            "byteOffset" : 15660
        },
        {
            "buffer" : 0,
            "byteLength" : 12,
            "byteOffset" : 15664
        },
        {
            "buffer" : 0,
            "byteLength" : 12,
            "byteOffset" : 15676
        },
        {
            "buffer" : 0,
            "byteLength" : 12,
            "byteOffset" : 15688
        }
    ],
    "buffers" : [
        {
            "byteLength" : 15700,
            "uri" : "data:application/octet-stream;base64,"
        }
    ]
}
